# Blender v2.79 (sub 0) OBJ File: 'untitled.blend'
# www.blender.org
mtllib untitled.mtl
o Cylinder.043_Cylinder
v 0.000000 0.353324 -0.665895
v 0.000000 2.353324 -1.000000
v 0.129910 0.353324 -0.653100
v 0.195090 2.353324 -0.980785
v 0.254827 0.353324 -0.615207
v 0.382683 2.353324 -0.923880
v 0.369952 0.353324 -0.553672
v 0.555570 2.353324 -0.831470
v 0.470859 0.353324 -0.470859
v 0.707107 2.353324 -0.707107
v 0.553672 0.353324 -0.369952
v 0.831470 2.353324 -0.555570
v 0.615207 0.353324 -0.254827
v 0.923880 2.353324 -0.382683
v 0.653100 0.353324 -0.129910
v 0.980785 2.353324 -0.195090
v 0.665895 0.353324 -0.000000
v 1.000000 2.353324 -0.000000
v 0.653100 0.353324 0.129910
v 0.980785 2.353324 0.195090
v 0.615207 0.353324 0.254827
v 0.923880 2.353324 0.382683
v 0.553672 0.353324 0.369951
v 0.831470 2.353324 0.555570
v 0.470859 0.353324 0.470859
v 0.707107 2.353324 0.707107
v 0.369951 0.353324 0.553671
v 0.555570 2.353324 0.831470
v 0.254827 0.353324 0.615207
v 0.382683 2.353324 0.923880
v 0.129910 0.353324 0.653100
v 0.195090 2.353324 0.980785
v -0.000000 0.353324 0.665895
v -0.000000 2.353324 1.000000
v -0.129910 0.353324 0.653100
v -0.195091 2.353324 0.980785
v -0.254827 0.353324 0.615207
v -0.382684 2.353324 0.923879
v -0.369952 0.353324 0.553671
v -0.555571 2.353324 0.831469
v -0.470859 0.353324 0.470859
v -0.707107 2.353324 0.707106
v -0.553672 0.353324 0.369951
v -0.831470 2.353324 0.555570
v -0.615207 0.353324 0.254826
v -0.923880 2.353324 0.382683
v -0.653100 0.353324 0.129909
v -0.980785 2.353324 0.195089
v -0.665895 0.353324 -0.000001
v -1.000000 2.353324 -0.000001
v -0.653100 0.353324 -0.129910
v -0.980785 2.353324 -0.195091
v -0.615206 0.353324 -0.254828
v -0.923879 2.353324 -0.382684
v -0.553671 0.353324 -0.369952
v -0.831469 2.353324 -0.555571
v -0.470858 0.353324 -0.470860
v -0.707106 2.353324 -0.707108
v -0.369951 0.353324 -0.553672
v -0.555569 2.353324 -0.831470
v -0.254826 0.353324 -0.615207
v -0.382682 2.353324 -0.923880
v -0.129909 0.353324 -0.653100
v -0.195089 2.353324 -0.980786
vt 0.839217 0.859783
vt 0.838490 0.582748
vt 0.879170 0.585309
vt 0.878489 0.856401
vt 0.913766 0.588569
vt 0.913710 0.857554
vt 0.321191 0.594469
vt 0.321458 0.877812
vt 0.280778 0.880373
vt 0.285331 0.598739
vt 0.235577 0.882137
vt 0.237688 0.597350
vt 0.187592 0.883037
vt 0.188191 0.600513
vt 0.138667 0.883037
vt 0.135491 0.599495
vt 0.090681 0.882137
vt 0.094697 0.598367
vt 0.054252 0.880373
vt 0.054086 0.598739
vt 0.004801 0.877812
vt -0.000154 0.598499
vt 0.316408 0.549244
vt 0.316059 0.271560
vt 0.350748 0.269639
vt 0.351691 0.544235
vt 0.393241 0.267455
vt 0.392752 0.548886
vt 0.438489 0.266111
vt 0.438548 0.542903
vt 0.484754 0.265657
vt 0.486180 0.545654
vt 0.535413 0.266111
vt 0.536160 0.541886
vt 0.583364 0.267455
vt 0.583756 0.542781
vt 0.628505 0.269639
vt 0.629480 0.546270
vt 0.669102 0.272577
vt 0.668697 0.548227
vt 0.317710 0.267692
vt 0.318912 0.550710
vt 0.283988 0.552615
vt 0.285752 0.265908
vt 0.243083 0.553586
vt 0.244589 0.273677
vt 0.197769 0.553586
vt 0.198750 0.276730
vt 0.149789 0.552615
vt 0.149394 0.273031
vt 0.100985 0.550710
vt 0.101230 0.272780
vt 0.469188 0.599259
vt 0.470533 0.876809
vt 0.422553 0.877780
vt 0.421573 0.597871
vt 0.377240 0.877780
vt 0.377474 0.596853
vt 0.336335 0.876808
vt 0.336311 0.600277
vt 0.524493 0.869765
vt 0.524437 0.588569
vt 0.562513 0.585309
vt 0.561454 0.861489
vt 0.604934 0.583765
vt 0.605948 0.860801
vt 0.646654 0.580984
vt 0.648232 0.858608
vt 0.696379 0.580084
vt 0.695850 0.860044
vt 0.740083 0.580084
vt 0.738872 0.862080
vt 0.793290 0.580984
vt 0.791712 0.856573
vt 0.094536 0.470642
vt 0.067447 0.460627
vt 0.044410 0.447881
vt 0.026311 0.432893
vt 0.013843 0.416240
vt 0.007487 0.398560
vt 0.007487 0.380535
vt 0.013843 0.362855
vt 0.026311 0.346202
vt 0.044410 0.331214
vt 0.067447 0.318468
vt 0.094536 0.308453
vt 0.124635 0.301555
vt 0.156588 0.298038
vt 0.189167 0.298038
vt 0.221120 0.301555
vt 0.251219 0.308453
vt 0.278308 0.318468
vt 0.301345 0.331214
vt 0.319445 0.346202
vt 0.331912 0.362855
vt 0.338268 0.380535
vt 0.338268 0.398561
vt 0.331912 0.416240
vt 0.319445 0.432894
vt 0.301345 0.447881
vt 0.278308 0.460627
vt 0.251219 0.470642
vt 0.221120 0.477540
vt 0.189167 0.481057
vt 0.156588 0.481057
vt 0.124635 0.477540
vn 0.0000 -0.7436 -0.6686
vn 0.0000 -0.1647 -0.9863
vn 0.1924 -0.1647 -0.9674
vn 0.1304 -0.7436 -0.6557
vn 0.3775 -0.1647 -0.9112
vn 0.2558 -0.7436 -0.6177
vn 0.5480 -0.1647 -0.8201
vn 0.3714 -0.7436 -0.5559
vn 0.6974 -0.1647 -0.6974
vn 0.4727 -0.7436 -0.4727
vn 0.8201 -0.1647 -0.5480
vn 0.5559 -0.7436 -0.3714
vn 0.9112 -0.1647 -0.3775
vn 0.6177 -0.7436 -0.2558
vn 0.9674 -0.1647 -0.1924
vn 0.6557 -0.7436 -0.1304
vn 0.9863 -0.1647 0.0000
vn 0.6686 -0.7436 0.0000
vn 0.9674 -0.1647 0.1924
vn 0.6557 -0.7436 0.1304
vn 0.9112 -0.1647 0.3775
vn 0.6177 -0.7436 0.2558
vn 0.8201 -0.1647 0.5480
vn 0.5559 -0.7436 0.3714
vn 0.6974 -0.1647 0.6974
vn 0.4727 -0.7436 0.4727
vn 0.5480 -0.1647 0.8201
vn 0.3714 -0.7436 0.5559
vn 0.3774 -0.1647 0.9113
vn 0.2558 -0.7436 0.6177
vn 0.1924 -0.1647 0.9674
vn 0.1304 -0.7436 0.6557
vn 0.0000 -0.1647 0.9863
vn 0.0000 -0.7436 0.6686
vn -0.1924 -0.1647 0.9674
vn -0.1304 -0.7436 0.6557
vn -0.3775 -0.1647 0.9112
vn -0.2558 -0.7436 0.6177
vn -0.5480 -0.1647 0.8201
vn -0.3714 -0.7436 0.5559
vn -0.6974 -0.1647 0.6974
vn -0.4727 -0.7436 0.4727
vn -0.8201 -0.1647 0.5480
vn -0.5559 -0.7436 0.3714
vn -0.9113 -0.1647 0.3774
vn -0.6177 -0.7436 0.2558
vn -0.9674 -0.1647 0.1924
vn -0.6557 -0.7436 0.1304
vn -0.9863 -0.1647 0.0000
vn -0.6686 -0.7436 0.0000
vn -0.9674 -0.1647 -0.1924
vn -0.6557 -0.7436 -0.1304
vn -0.9112 -0.1647 -0.3775
vn -0.6177 -0.7436 -0.2558
vn -0.8201 -0.1647 -0.5480
vn -0.5559 -0.7436 -0.3714
vn -0.6974 -0.1647 -0.6974
vn -0.4727 -0.7436 -0.4727
vn -0.5480 -0.1647 -0.8201
vn -0.3714 -0.7436 -0.5559
vn -0.3774 -0.1647 -0.9113
vn -0.2558 -0.7436 -0.6177
vn -0.1924 -0.1647 -0.9674
vn -0.1304 -0.7436 -0.6557
usemtl lumut
s 1
f 1/1/1 2/2/2 4/3/3 3/4/4
f 3/4/4 4/3/3 6/5/5 5/6/6
f 5/7/6 6/8/5 8/9/7 7/10/8
f 7/10/8 8/9/7 10/11/9 9/12/10
f 9/12/10 10/11/9 12/13/11 11/14/12
f 11/14/12 12/13/11 14/15/13 13/16/14
f 13/16/14 14/15/13 16/17/15 15/18/16
f 15/18/16 16/17/15 18/19/17 17/20/18
f 17/20/18 18/19/17 20/21/19 19/22/20
f 19/23/20 20/24/19 22/25/21 21/26/22
f 21/26/22 22/25/21 24/27/23 23/28/24
f 23/28/24 24/27/23 26/29/25 25/30/26
f 25/30/26 26/29/25 28/31/27 27/32/28
f 27/32/28 28/31/27 30/33/29 29/34/30
f 29/34/30 30/33/29 32/35/31 31/36/32
f 31/36/32 32/35/31 34/37/33 33/38/34
f 33/38/34 34/37/33 36/39/35 35/40/36
f 35/41/36 36/42/35 38/43/37 37/44/38
f 37/44/38 38/43/37 40/45/39 39/46/40
f 39/46/40 40/45/39 42/47/41 41/48/42
f 41/48/42 42/47/41 44/49/43 43/50/44
f 43/50/44 44/49/43 46/51/45 45/52/46
f 45/53/46 46/54/45 48/55/47 47/56/48
f 47/56/48 48/55/47 50/57/49 49/58/50
f 49/58/50 50/57/49 52/59/51 51/60/52
f 51/61/52 52/62/51 54/63/53 53/64/54
f 53/64/54 54/63/53 56/65/55 55/66/56
f 55/66/56 56/65/55 58/67/57 57/68/58
f 57/68/58 58/67/57 60/69/59 59/70/60
f 59/70/60 60/69/59 62/71/61 61/72/62
f 61/72/62 62/71/61 64/73/63 63/74/64
f 63/74/64 64/73/63 2/2/2 1/1/1
f 1/75/1 3/76/4 5/77/6 7/78/8 9/79/10 11/80/12 13/81/14 15/82/16 17/83/18 19/84/20 21/85/22 23/86/24 25/87/26 27/88/28 29/89/30 31/90/32 33/91/34 35/92/36 37/93/38 39/94/40 41/95/42 43/96/44 45/97/46 47/98/48 49/99/50 51/100/52 53/101/54 55/102/56 57/103/58 59/104/60 61/105/62 63/106/64
