<svg width="590" height="359" viewBox="0 0 590 359" fill="none" xmlns="http://www.w3.org/2000/svg">
<path d="M145.414 10.4329C145.414 16.5863 147.079 22.6916 147.408 28.9485C148.24 44.7504 149.516 60.7522 149.516 76.5763C149.516 93.1892 148.49 109.664 148.49 126.255C148.49 140.866 146.439 155.344 146.439 169.895C146.439 187.587 148.49 205.169 148.49 222.935C148.49 238.279 149.623 254.452 151.795 269.651C153.08 278.65 155.462 287.684 155.669 296.769C155.837 304.167 156.955 312.967 158.745 320.127" stroke="black" stroke-width="20" stroke-linecap="round"/>
<path d="M140.286 185.79C138.49 183.993 138.714 182.759 137.666 180.662C136.593 178.518 134.452 177.248 133.108 175.307C130.05 170.89 125.29 168.678 120.802 165.793C106.211 156.413 89.4702 157.076 72.6049 157.076C54.6132 157.076 36.3943 164.132 24.9202 178.156C22.6989 180.87 22.9055 184.998 21.1031 188.069C18.4847 192.529 15.6607 196.864 13.6969 201.685C10.6246 209.226 10.1808 219.996 10.0507 228.062C9.74016 247.317 12.8027 264.834 19.7928 282.697C25.5488 297.407 40.636 304.941 54.1463 311.696C69.5376 319.391 89.8462 321.259 106.446 315.513C117.684 311.622 127.747 306.174 137.153 298.649C142.225 294.592 145.979 289.823 150.541 285.261" stroke="black" stroke-width="20" stroke-linecap="round"/>
<path d="M212.07 178.611C212.07 189.459 214.121 200.076 214.121 210.914C214.121 218.375 215.347 225.122 214.349 232.734C213.343 240.406 213.923 248.824 214.121 256.548C214.25 261.58 216.493 266.471 217.254 271.417C218.086 276.826 219.239 282.552 220.844 287.825C223.83 297.636 226.917 307.121 235.143 313.519C243.035 319.657 250.284 324.012 260.267 326.508C276.49 330.564 294.091 327.973 310.003 324.229C326.421 320.366 338.743 302.398 347.433 289.363" stroke="black" stroke-width="20" stroke-linecap="round"/>
<path d="M352.561 187.841C358.246 198.58 354.611 211.158 354.611 222.764C354.611 236.931 354.611 251.097 354.611 265.264C354.611 277.179 356.039 288.805 356.662 300.643C357.188 310.625 359.739 320.327 359.739 330.382" stroke="black" stroke-width="20" stroke-linecap="round"/>
<path d="M565.86 205.274C565.86 206.146 564.782 202.137 564.322 201.115C562.552 197.182 561.138 193.378 558.91 189.664C555.206 183.492 550.707 179.086 544.838 175.022C533.095 166.893 513.328 163.335 499.546 168.129C484.386 173.402 465.931 181.122 457.159 195.532C452.486 203.209 451.829 212.011 447.93 220.086C443.792 228.657 443.98 235.799 443.828 245.04C443.677 254.243 442.777 262.458 444.626 271.702C446.391 280.529 452.151 288.576 456.134 296.541C464.073 312.419 478.436 322.773 494.077 330.382C508.015 337.163 528.158 339.324 541.249 329.869C548.148 324.887 554.426 319.184 561.188 314.031C566.723 309.814 569.934 305.124 574.064 299.618" stroke="black" stroke-width="20" stroke-linecap="round"/>
<path d="M569.962 174.509C569.962 180.513 572.013 186.687 572.013 192.968C572.013 205.876 571.811 218.802 572.013 231.708C572.169 241.714 574.064 251.614 574.064 261.675C574.064 270.539 573.571 279.379 575.317 288.11C577.681 299.926 579.191 311.342 579.191 323.432C579.191 331.225 578.166 354.583 578.166 346.79" stroke="black" stroke-width="20" stroke-linecap="round"/>
</svg>
