<svg width="985" height="358" viewBox="0 0 985 358" fill="none" xmlns="http://www.w3.org/2000/svg">
<path d="M91.4385 24.9992C90.2092 25.1748 92.5795 31.2219 92.7899 32.4319C93.9762 39.253 95.3943 44.9385 95.4927 52.0271C95.7428 70.0317 99.5469 87.9616 99.5469 106.008C99.5469 120.442 102.25 134.879 102.25 149.328C102.25 163.718 102.25 178.107 102.25 192.497C102.25 221.899 107.655 251.133 107.655 280.413C107.655 289.688 106.304 298.963 106.304 308.042C106.304 311.44 108.084 323.444 104.952 325.009" stroke="black" stroke-width="20" stroke-linecap="round"/>
<path d="M13.0575 331.766C12.7019 334.611 11.3234 334.469 15.7603 334.469C21.3644 334.469 26.9744 334.549 32.5777 334.469C43.0714 334.319 53.0539 330.673 63.2093 328.388C77.515 325.169 92.5648 324.188 107.055 321.631C132.103 317.211 208.769 319.604 183.334 319.604" stroke="black" stroke-width="20" stroke-linecap="round"/>
<path d="M10.3546 14.188C9.8125 9.85099 10.7477 12.2046 15.7602 12.7615C23.9826 13.6751 32.6341 14.7101 40.7611 16.2151C62.1837 20.1822 87.2778 24.6386 109.007 21.6207C126.105 19.2459 143.184 17.7496 160.36 16.8908C168.958 16.4609 174.598 10.1338 183.333 10.1338" stroke="black" stroke-width="20" stroke-linecap="round"/>
<path d="M200.902 176.356C201.47 171.809 205.26 178.921 205.556 179.809C208.266 187.937 208.613 196.705 210.361 205.035C214.369 224.13 215.767 243.676 215.767 263.145C215.767 278.123 213.474 292.7 213.064 307.441C212.834 315.713 210.361 323.408 210.361 331.766" stroke="black" stroke-width="20" stroke-linecap="round"/>
<path d="M210.361 208.789C211.216 201.096 224.489 189.993 231.308 187.918C243.506 184.205 256.063 181.761 268.772 181.761C288.09 181.761 305.09 183.253 322.527 191.972C330.228 195.822 329.833 212.291 330.936 219.6C332.965 233.042 336.141 246.407 334.615 260.142C332.332 280.689 331.987 303.001 331.987 323.658" stroke="black" stroke-width="20" stroke-linecap="round"/>
<path d="M381.989 170.95C391.505 170.95 390.85 187.261 391.449 193.398C393.605 215.502 395.503 238.039 395.503 260.217C395.503 276.403 396.03 292.608 392.5 308.492C390.331 318.252 388.746 327.047 388.746 337.172" stroke="black" stroke-width="20" stroke-linecap="round"/>
<path d="M400.908 204.735C396.918 204.735 395.936 205.151 399.257 200.681C402.648 196.116 408.927 192.063 414.122 189.87C426.045 184.836 438.08 183.688 450.61 181.461C463.695 179.135 474.189 179.128 487.097 182.062C495.034 183.865 509.74 188.548 515.026 195.275C521.501 203.516 522.395 218.326 523.885 228.384C526.165 243.773 524.954 258.895 523.81 274.332C521.977 299.078 517.128 323.074 517.128 347.983" stroke="black" stroke-width="20" stroke-linecap="round"/>
<path d="M567.13 254.737C583.982 254.737 601.37 256.088 618.483 256.088C627.145 256.088 635.528 253.385 644.16 253.385C650.484 253.385 656.617 254.737 662.779 254.737C674.491 254.737 686.203 254.737 697.916 254.737C702.616 254.737 708.858 253.552 713.081 255.788C716.843 257.779 721.099 259.395 719.913 254.061C717.198 241.843 712.575 229.549 706.925 218.249C704.574 213.547 698.534 209.108 694.837 205.411C690.967 201.54 686.475 198.399 682.675 194.6C675.07 186.995 664.141 186.165 654.371 184.389C649.785 183.555 645.663 183.113 640.782 183.113C636.29 183.113 632.475 185.564 627.943 185.815C606.48 187.008 586.899 210.119 577.641 227.709C572.22 238.01 568.908 247.163 568.482 259.091C568.021 272.001 577.318 287.928 584.098 298.582C587.54 303.99 593.584 307.143 596.936 312.171C600.288 317.199 608.058 318.639 612.402 322.982C621.278 331.858 637.395 330.415 648.89 330.415C671.808 330.415 690.02 308.836 709.027 299.333" stroke="black" stroke-width="20" stroke-linecap="round"/>
<path d="M776.597 181.761C776.597 151.927 776.487 241.445 775.245 271.254C774.771 282.638 773.894 293.86 773.894 305.339C773.894 313.35 771.191 321.124 771.191 329.064" stroke="black" stroke-width="20" stroke-linecap="round"/>
<path d="M780.651 216.898C776.119 216.331 790.264 204.275 791.537 203.384C801.435 196.455 814.497 192.572 826.523 192.572C845.948 192.572 859.029 198.91 872.246 213.144C878.365 219.733 879.303 232.092 879.303 240.472C879.303 253.291 878.63 266.329 877.877 279.137C877.247 289.843 874.344 300.703 872.246 311.195C870.294 320.955 869.843 332.639 869.843 342.578" stroke="black" stroke-width="20" stroke-linecap="round"/>
<path d="M877.952 218.249C873.008 216.837 887.785 207.02 888.162 206.762C897.008 200.71 905.907 199.329 916.391 199.329C936.537 199.329 952.296 208.216 963.09 225.006C967.993 232.634 973.693 240.057 973.901 249.631C974.17 262.012 974.104 274.487 973.901 286.87C973.757 295.623 969.86 307.081 967.144 315.55C965.769 319.837 963.09 324.789 963.09 329.364C963.09 331.619 964.441 333.399 964.441 335.821" stroke="black" stroke-width="20" stroke-linecap="round"/>
</svg>
