<svg width="738" height="338" viewBox="0 0 738 338" fill="none" xmlns="http://www.w3.org/2000/svg">
<path d="M10.7915 10.2887C10.7915 19.9212 13.4943 29.1603 13.4943 38.668C13.4943 55.2588 16.2512 71.4941 17.4734 87.994C20.4575 128.28 14.8457 168.729 14.8457 208.944C14.8457 234.219 17.5485 259.21 17.5485 284.322C17.5485 297.516 20.2513 337.007 20.2513 323.813" stroke="black" stroke-width="20" stroke-linecap="round"/>
<path d="M25.657 325.164C26.197 329.485 62.8594 325.411 66.1238 325.239C77.7234 324.629 89.1738 325.579 100.735 324.113C112.805 322.583 123.947 321.11 136.171 321.11C147.588 321.11 159.645 322.255 170.932 320.434C175.029 319.774 181.017 317.795 185.122 318.708C187.754 319.292 189.049 321.11 191.879 321.11C200.364 321.11 206.216 320.698 213.501 317.056" stroke="black" stroke-width="20" stroke-linecap="round"/>
<path d="M262.151 165.699C263.692 178.027 265.545 190.598 264.779 203.614C263.68 222.301 264.854 240.295 264.854 258.871C264.854 277.815 264.854 296.76 264.854 315.704" stroke="black" stroke-width="20" stroke-linecap="round"/>
<path d="M327.019 160.294C329.351 160.585 333.151 192.341 333.776 195.43C337.527 213.978 339.181 232.558 339.181 251.438C339.181 263.572 336.478 275.381 336.478 287.325C336.478 290.336 336.26 305.002 333.776 306.245" stroke="black" stroke-width="20" stroke-linecap="round"/>
<path d="M336.478 196.781C331.865 196.205 349.108 180.055 350.293 178.913C356.772 172.665 372.071 169.327 381.074 168.327C396.902 166.568 423.351 165.712 433.704 181.24C445.587 199.066 436.482 225.73 436.482 245.432C436.482 250.47 434.833 255.493 433.178 260.222C431.303 265.579 431.85 271.669 431.001 277.19C429.377 287.747 428.773 298.44 427.022 308.947" stroke="black" stroke-width="20" stroke-linecap="round"/>
<path d="M439.184 194.079C439.184 190.308 437.735 190.22 439.86 185.97C442.299 181.093 446.976 177.265 451.347 174.108C460.441 167.54 474.533 165.279 485.432 163.297C495.597 161.449 504.986 168.194 513.511 172.456C523.853 177.627 529.897 184.026 532.431 195.43C534.446 204.5 537.902 218.815 534.383 227.864C530.189 238.647 531.677 249.765 529.728 260.973C526.943 276.987 528.377 294.044 528.377 310.299" stroke="black" stroke-width="20" stroke-linecap="round"/>
<path d="M720.275 185.97C720.275 187.831 720.275 183.171 720.275 182.517C720.275 178.596 717.631 175.921 716.146 172.456C713.898 167.211 707.015 162.133 702.407 158.942C689.956 150.323 673.868 149.483 659.162 149.483C651.412 149.483 642.313 151.064 635.813 155.564C629.184 160.153 619.7 161.684 613.815 167.351C598.855 181.757 587.39 198.963 582.733 219.455C580.802 227.95 577.472 236.6 578.453 245.432C579.246 252.562 586.526 261.65 590.541 267.354C598.572 278.767 618.846 288.936 632.434 292.43C641.644 294.799 649.016 292.731 658.111 292.731C665.174 292.731 671.421 290.284 678.081 290.028C686.52 289.703 705.341 284.759 709.464 276.514" stroke="black" stroke-width="20" stroke-linecap="round"/>
<path d="M722.978 167.051C722.978 162.646 723.048 175.86 722.978 180.264C722.806 191.122 720.275 201.784 720.275 212.698C720.275 226.951 717.572 240.706 717.572 254.892C717.572 266.475 718.022 278.577 721.326 289.728C722.29 292.979 722.503 296.436 724.029 299.488C724.696 300.821 728.224 304.893 727.032 304.893" stroke="black" stroke-width="20" stroke-linecap="round"/>
<path d="M268.908 92.7239C267.375 92.8141 264.972 92.8419 266.206 94.0753" stroke="black" stroke-width="20" stroke-linecap="round"/>
</svg>
