<svg width="894" height="367" viewBox="0 0 894 367" fill="none" xmlns="http://www.w3.org/2000/svg">
<path d="M10.8023 58.8972C10.8023 66.5849 12.6893 75.0188 13.6508 82.7111C15.5244 97.6996 14.9042 113.465 14.9042 128.573C14.9042 151.999 14.9042 175.064 14.9042 198.362" stroke="black" stroke-width="20" stroke-linecap="round"/>
<path d="M15.9297 84.5342C15.9297 85.3649 18.8209 80.8117 19.5758 79.9195C23.198 75.6387 26.6676 72.5646 31.084 69.152C39.177 62.8983 47.7051 59.0824 57.7464 57.0742C65.8773 55.448 74.5202 57.7166 82.5858 57.8718C93.7749 58.0869 94.6791 61.9157 100.816 70.1775C114.591 88.7197 110.736 109.198 110.274 130.909C109.779 154.171 107.197 177.093 107.197 200.413" stroke="black" stroke-width="20" stroke-linecap="round"/>
<path d="M112.325 83.5087C112.641 86.0359 119.017 79.2486 119.731 78.3813C122.766 74.696 128.645 70.4537 132.834 68.1265C136.871 65.8836 140.601 61.7473 144.912 60.1505C148.227 58.9229 151.194 58.2059 154.369 56.6183C161.315 53.1456 168.802 58.4062 175.676 58.8972C182.788 59.4051 191.159 66.9731 195.958 71.7726C201.892 77.7067 207.49 82.3457 208.663 91.1428C210.121 102.084 209.745 113.455 209.745 124.528C209.745 135.756 211.952 149.598 209.232 160.477C206.587 171.059 210.055 183.076 206.669 193.235" stroke="black" stroke-width="20" stroke-linecap="round"/>
<path d="M386.127 69.152C386.127 70.277 385.592 67.0812 385.102 66.3035C382.989 62.9476 380.389 61.5786 376.841 59.9227C368.763 56.1528 360.951 52.9734 352.287 50.9213C336.262 47.1259 314.944 46.2046 299.987 53.542C285.893 60.4559 272.709 63.5769 268.995 80.6602C265.297 97.6729 259.851 114.819 265.121 132.276C269.411 146.486 272.04 164.262 282.782 175.004C291.567 183.789 298.647 192.477 312.293 193.235C320.006 193.663 327.571 194.745 335.423 194.203C340.184 193.875 344.463 191.538 349.21 191.241C353.755 190.957 358.449 190.73 362.769 189.133C367.986 187.205 376.872 183.752 380.487 179.334C383.212 176.004 388.899 171.588 390.229 167.598" stroke="black" stroke-width="20" stroke-linecap="round"/>
<path d="M388.178 51.7189C388.178 64.0143 390.075 76.623 389.147 89.1488C388.068 103.716 384.754 117.602 387.666 132.162C389.829 142.981 389.999 155.287 394.103 165.547C397.19 173.263 400.484 183.993 400.484 192.209" stroke="black" stroke-width="20" stroke-linecap="round"/>
<path d="M440.478 41.4641C449.615 50.6011 453.093 65.9186 457.911 77.5837C460.599 84.0914 465.764 89.2386 469.191 95.3587C473.417 102.905 476.856 111.082 481.497 118.375C489.08 130.292 497.331 141.907 503.488 154.779C507.805 163.807 508.952 174.31 513.287 182.98" stroke="black" stroke-width="20" stroke-linecap="round"/>
<path d="M596.35 32.2347C590.875 32.9191 583.052 50.6637 580.399 54.9092C570.594 70.5963 563.432 87.7181 552.825 102.993C543.502 116.417 537.69 132.317 530.72 147.031C525.118 158.858 518.792 170.599 514.768 183.037C510.024 197.701 500.645 210.314 493.803 223.999C485.745 240.114 478.797 257.001 472.268 273.792C461.757 300.82 455.524 330.296 442.529 356.286" stroke="black" stroke-width="20" stroke-linecap="round"/>
<path d="M719.408 50.6934C719.408 55.7105 716.613 47.859 716.331 46.5915C714.678 39.1507 708.398 34.6843 702.772 30.1838C686.911 17.4948 667.627 12.3706 647.738 18.4478C630.384 23.7505 621.684 43.2274 621.987 59.9227C622.341 79.3506 636.23 86.9839 653.777 88.5791C668.494 89.9171 688.865 92.4055 701.006 101.512C711.751 109.57 714.836 124.287 714.28 137.061C713.41 157.079 683.236 168.702 666.653 166.003C654.248 163.983 641.313 161.574 629.166 158.369C622.032 156.486 616.86 151.682 616.86 144.012" stroke="black" stroke-width="20" stroke-linecap="round"/>
<path d="M878.357 40.4386C878.565 41.8926 878.618 38.3493 878.357 37.3052C877.364 33.3315 875.656 30.6984 872.204 28.5887C864.541 23.9057 857.24 16.5979 848.618 13.7762C838.979 10.6215 826.398 10.6998 816.316 10.6998C805.164 10.6998 795.805 15.2863 786.064 20.1569C771.296 27.5409 757.151 43.9124 751.198 59.1251C747.812 67.778 741.754 76.7026 741 86.1294C740.283 95.0862 740.748 104.493 740.943 113.475C741.093 120.361 745.798 129.192 749.603 134.726C753.915 140.998 755.443 147.597 762.25 152.216C767.386 155.701 773.281 157.407 778.373 160.932C784.656 165.282 792.137 167.065 799.623 168.396C807.686 169.829 816.679 166.486 824.519 165.034C829.151 164.177 833.814 163.506 838.363 162.243C841.532 161.363 843.213 158.144 845.77 156.318C849.997 153.298 854.25 152.497 858.36 149.652C861.566 147.433 865.744 144.679 869.128 142.986" stroke="black" stroke-width="20" stroke-linecap="round"/>
<path d="M878.357 20.9545C878.357 8.58119 875.88 45.5775 874.483 57.8717C872.688 73.6681 871.915 89.1404 872.204 105.044C872.417 116.75 875.286 128.77 877.559 140.138C878.994 147.309 881.22 154.653 883.484 161.445" stroke="black" stroke-width="20" stroke-linecap="round"/>
</svg>
