<svg width="478" height="445" viewBox="0 0 478 445" fill="none" xmlns="http://www.w3.org/2000/svg">
<path d="M10.2222 185.68C10.2222 189.727 13.0432 192.801 13.1369 197.015C13.3939 208.58 13.9854 220.165 15.3229 231.668C18.8665 262.142 20.3771 292.726 21.8 323.318C22.8378 345.631 24.7956 367.629 24.7956 390.032C24.7956 398.28 26.8096 406.276 26.172 414.564C25.6438 421.432 24.7956 427.938 24.7956 434.886" stroke="black" stroke-width="20" stroke-linecap="round"/>
<path d="M17.5088 206.083C21.4393 209.14 48.4996 189.712 54.1044 187.785C64.5456 184.196 73.2116 184.001 83.818 182.037C91.7701 180.564 98.7641 179.156 106.407 182.765C129.787 193.806 143.046 217.408 145.836 242.517C149.089 271.788 130.52 302.529 103.573 314.655C92.2509 319.75 74.9736 326.384 62.3627 323.804C54.0735 322.109 49.1492 314.806 41.555 312.469C35.4124 310.579 30.6505 305.208 26.2529 300.811" stroke="black" stroke-width="20" stroke-linecap="round"/>
<path d="M196.762 165.277C205.909 166.294 207.57 216.554 208.34 225.029C209.478 237.547 208.421 250.673 208.421 263.243C208.421 273.508 205.506 283.622 205.506 293.524" stroke="black" stroke-width="20" stroke-linecap="round"/>
<path d="M185.104 99.6968C185.104 101.402 184.111 104.069 185.104 104.069" stroke="black" stroke-width="20" stroke-linecap="round"/>
<path d="M276.916 10.7987C277.164 13.0289 278.874 14.8166 279.507 16.9519C280.886 21.6047 279.831 27.9645 279.831 32.7399C279.831 54.4984 282.298 75.6072 281.369 97.4298C279.835 133.486 276.916 169.676 276.916 205.759C276.916 215.669 275.459 225.28 275.459 235.23C275.459 242.831 276.916 250.114 276.916 257.819C276.916 268.274 278.374 299.607 278.374 289.152" stroke="black" stroke-width="20" stroke-linecap="round"/>
<path d="M243.397 146.332C244.418 154.497 274.97 149.247 279.831 149.247C294.347 149.247 308.081 152.46 322.094 147.789" stroke="black" stroke-width="20" stroke-linecap="round"/>
<path d="M402.248 143.417C402.704 143.939 387.864 149.194 384.436 150.38C375.964 153.312 372.054 159.237 367.272 166.411C357.447 181.147 348.326 201.133 348.326 219.199C348.326 241.178 357.223 258.578 375.692 270.206C382.085 274.232 392.04 277.493 399.657 277.493C407.5 277.493 415.666 281.049 423.379 276.764C430.891 272.591 437.392 268.926 444.43 263.648C450.694 258.95 454.21 249.552 458.275 243.164C460.691 239.368 462.136 232.962 463.456 228.672C464.732 224.526 463.911 219.445 465.643 215.637C468.002 210.446 467.543 196.831 465.643 191.51C456.788 166.718 438.76 135.747 408.077 143.417" stroke="black" stroke-width="20" stroke-linecap="round"/>
</svg>
