<svg width="626" height="273" viewBox="0 0 626 273" fill="none" xmlns="http://www.w3.org/2000/svg">
<path d="M98.3929 118.268C97.846 113.346 90.0375 108.401 86.0055 106.609C80.8203 104.304 76.6104 98.5557 71.432 95.6788C63.4045 91.2191 49.3615 92.9728 40.8277 94.8692C31.9831 96.8347 21.5695 105.86 17.1054 113.896C9.72657 127.178 20.5724 140.479 29.8976 148.872C44.0585 161.617 65.5585 162.423 83.0908 167.817C98.8478 172.666 108.594 188.558 108.594 204.251C108.594 225.964 85.6167 236.56 66.0074 233.074C54.1324 230.963 44.7232 225.816 34.2697 220.282C26.7858 216.32 17.4191 210.882 10.9521 205.708" stroke="black" stroke-width="20" stroke-linecap="round"/>
<path d="M165.431 96.4075C170.168 96.9996 165.431 166.885 165.431 175.104C165.431 196.97 166.888 262.55 166.888 240.685" stroke="black" stroke-width="20" stroke-linecap="round"/>
<path d="M169.803 10.4241C169.803 12.6077 169.349 13.8407 171.26 14.7961" stroke="black" stroke-width="20" stroke-linecap="round"/>
<path d="M353.428 135.756C353.428 135.833 352.597 132.01 350.513 129.926C347.062 126.475 342.984 123.854 339.583 120.454C334.795 115.666 326.596 114.582 321.69 110.657C313.271 103.922 295.402 103.694 284.933 103.694C276.422 103.694 268.001 103.04 260.968 108.795C257.599 111.551 253.872 112.895 250.685 116.082C247.953 118.814 246.751 122.776 244.127 125.554C238.775 131.222 237.732 135.625 234.654 142.395C231.641 149.024 229.554 162.69 229.554 170.004C229.554 178.246 227.573 189.443 231.011 196.964C234.686 205.004 237.327 215.01 242.022 222.387C246.221 228.986 250.311 235.21 255.786 240.685C260.628 245.527 271.183 253.801 278.375 253.801C291.809 253.801 305.559 256.915 317.723 250.158C323.464 246.968 328.923 243.304 334.483 240.361C337.049 239.002 346.895 230.483 346.141 230.483" stroke="black" stroke-width="20" stroke-linecap="round"/>
<path d="M353.428 121.182C353.428 110.937 355.623 141.562 356.262 151.787C357.445 170.717 358.449 192.584 355.209 211.214C352.435 227.17 359.258 275.825 359.258 259.63" stroke="black" stroke-width="20" stroke-linecap="round"/>
<path d="M416.094 108.066C416.094 116.415 416.992 124.596 418.28 132.841C421.385 152.712 419.009 174.526 419.009 194.616C419.009 206.595 419.007 217.375 416.418 229.026C414.923 235.751 414.637 242.545 414.637 249.429" stroke="black" stroke-width="20" stroke-linecap="round"/>
<path d="M419.009 132.841C426.857 132.841 431.798 125.789 439.412 124.097C449.426 121.872 458.632 117.235 468.559 115.029C484.813 111.417 503.33 119.094 512.279 132.517C536.137 168.305 515.194 215.1 515.194 253.801" stroke="black" stroke-width="20" stroke-linecap="round"/>
<path d="M522.481 145.957C517.266 145.305 535.527 129.302 537.783 127.74C546.884 121.439 559.539 116.66 570.573 115.434C579.933 114.394 593.577 115.039 600.449 121.911C607.672 129.134 607.744 135.28 610.65 144.581C617.035 165.014 615.057 190.486 614.293 211.862C613.942 221.694 607.379 231.326 607.007 241.009C606.798 246.426 606.433 254.949 604.092 259.63" stroke="black" stroke-width="20" stroke-linecap="round"/>
</svg>
