<svg width="568" height="362" viewBox="0 0 568 362" fill="none" xmlns="http://www.w3.org/2000/svg">
<path d="M50.1909 11.7649C52.8064 9.4401 53.2673 11.5473 53.2673 14.0438C53.2673 22.5889 53.8625 31.4783 54.8056 39.9656C57.0126 59.8286 52.348 80.1818 54.8056 99.8422C56.8757 116.404 54.8453 133.2 56.8565 149.692C58.8941 166.4 59.4202 183.686 59.4202 200.51C59.4202 215.586 61.4712 230.529 61.4712 245.574C61.4712 258.969 58.3947 272.037 58.3947 285.34C58.3947 297.166 55.3183 308.655 55.3183 320.434C55.3183 330.711 56.3438 341.048 56.3438 351.198" stroke="black" stroke-width="20" stroke-linecap="round"/>
<path d="M14.2992 165.587C4.6746 165.587 16.2405 167.395 20.0532 167.581C27.6651 167.952 34.5678 167.773 41.9871 169.917C49.163 171.99 57.0067 174.676 64.5476 174.816C68.8686 174.896 73.0612 175.842 77.3661 175.842C81.7642 175.842 85.0391 173.946 89.1591 172.822C92.8879 171.805 98.6608 170.714 102.49 170.714" stroke="black" stroke-width="20" stroke-linecap="round"/>
<path d="M259.389 183.02C258.796 177.091 250.459 172.106 246.114 169.119C238.885 164.149 233.041 161.142 224.75 158.181C208.828 152.494 192.312 155.766 177.863 164.561C170.926 168.784 164.007 172.258 156.841 175.842C150.787 178.869 140.688 184.522 137.357 190.768C128.42 207.524 127.852 223.445 132.001 241.7C133.906 250.082 136.385 258.17 139.92 266.027C143.242 273.409 145.057 283.164 149.89 289.67C158.573 301.358 167.933 313.925 181.509 319.864C196.275 326.324 210.716 323.102 225.491 319.409C232.544 317.645 240.133 314.053 245.26 308.926C249.272 304.914 254.521 299.282 259.389 296.848" stroke="black" stroke-width="20" stroke-linecap="round"/>
<path d="M266.567 160.459C269.012 163.21 267.592 170.679 267.592 174.018C267.592 184.696 266.783 195.748 267.82 206.378C269.905 227.744 266.012 249.948 269.131 271.154C270.123 277.899 272.72 284.843 272.72 291.664C272.72 297.998 271.249 304.355 271.751 310.635C272.201 316.262 273.745 321.314 273.745 327.043C273.745 330.129 273.412 333.099 274.771 335.816" stroke="black" stroke-width="20" stroke-linecap="round"/>
<path d="M308.611 23.0452C308.611 -9.77723 310.662 88.6687 310.662 121.491C310.662 140.036 313.739 158.384 313.739 176.867C313.739 192.465 315.498 207.789 317.043 223.241C318.374 236.546 321.553 248.994 320.86 262.494C320.238 274.622 320.514 287.12 318.638 299.127C315.894 316.688 313.739 333.41 313.739 351.198" stroke="black" stroke-width="20" stroke-linecap="round"/>
<path d="M381.42 20.9943C381.42 29.8024 382.175 38.0494 380.908 47.2009C377.583 71.2152 377.166 94.8154 375.78 118.927C374.634 138.88 376.667 159.091 374.755 178.975C373.392 193.144 373.217 207.143 373.217 221.361C373.217 241.304 376.293 260.721 376.293 280.668C376.293 290.516 380.395 299.318 380.395 309.154C380.395 317.699 380.395 326.245 380.395 334.791" stroke="black" stroke-width="20" stroke-linecap="round"/>
<path d="M501.401 174.816C496.783 178.921 486.159 174.177 480.436 176.924C471.818 181.061 461.473 189.319 455.483 196.807C452.596 200.415 448.861 203.569 446.595 207.688C443.903 212.584 443.233 218.4 440.955 223.526C436.68 233.146 437.776 244.357 435.999 254.575C434.329 264.175 434.015 279.949 437.309 289.1C440.133 296.943 444.089 308.698 449.9 314.509C455.169 319.778 461.695 324.599 467.561 329.207C472.995 333.477 479.194 338.893 486.589 338.893C494.921 338.893 504.81 333.816 512.454 330.689C521.038 327.177 526.241 319.312 534.274 314.794C548.808 306.618 553.966 290.249 557.233 275.313C560.159 261.937 553.773 249.863 550.397 237.37C547.662 227.252 541.513 216.983 536.837 207.631C531.579 197.114 525.197 187.903 518.265 178.348C513.081 171.202 503.603 170.276 496.274 166.612" stroke="black" stroke-width="20" stroke-linecap="round"/>
</svg>
