<svg width="822" height="474" viewBox="0 0 822 474" fill="none" xmlns="http://www.w3.org/2000/svg">
<path d="M13.7898 68.6046C9.39358 73.5504 11.087 88.0233 11.087 93.9808C11.087 112.3 11.087 130.619 11.087 148.938C11.087 163.953 11.087 178.969 11.087 193.984C11.087 201.527 12.1074 208.759 12.4384 216.207C12.6852 221.758 12.7971 229.412 14.4655 234.751C16.018 239.719 15.1196 245.144 16.4926 250.292C17.8769 255.483 19.3801 260.658 20.5468 265.909C22.6086 275.187 25.4542 284.213 28.3549 293.237C33.4779 309.175 40.8747 321.33 55.6831 329.124C82.0284 342.99 108.588 345.641 138.118 345.641C141.806 345.641 147.627 346.815 150.957 344.965C154.23 343.147 156.432 339.938 159.741 338.283C167.259 334.524 170.98 328.383 174.906 321.316C180.329 311.555 190.787 306.287 194.877 295.039C197.141 288.814 202.275 284.257 204.337 278.071" stroke="black" stroke-width="20" stroke-linecap="round"/>
<path d="M205.688 56.442C205.688 26.808 204.337 115.7 204.337 145.334C204.337 159.398 204.337 173.463 204.337 187.528C204.337 194.191 203.443 201.53 204.637 208.099C205.905 215.072 204.485 222.657 206.364 229.421C209.767 241.673 207.593 255.188 211.845 267.335C215.008 276.372 217.957 286.355 219.127 295.714C221.046 311.065 221.905 325.981 221.905 341.587" stroke="black" stroke-width="20" stroke-linecap="round"/>
<path d="M255.69 168.608C249.41 225.128 255.69 282.615 255.69 339.635C255.69 361.109 257.041 382.31 257.041 403.751C257.041 414.681 259.744 425.362 259.744 436.26C259.744 445.244 258.913 454.48 261.096 463.213" stroke="black" stroke-width="20" stroke-linecap="round"/>
<path d="M254.339 196.987C255.066 202.809 275.229 187.571 277.012 186.476C283.584 182.444 294.158 178.887 301.638 177.017C308.873 175.208 317.167 174.014 324.611 174.014C332.244 174.014 339.265 171.311 346.909 171.311C361.191 171.311 371.005 177.163 380.694 186.852C387.163 193.321 386.027 199.035 390.154 206.372C394.363 213.855 398.938 217.826 398.938 227.018C398.938 246.32 397.853 264.392 389.478 282.125C382.069 297.816 366.893 317.326 348.936 321.316C332.035 325.072 313.753 326.321 297.508 319.214C289.565 315.738 281.056 310.706 273.934 305.775C268.846 302.252 262.767 300.013 258.393 295.639" stroke="black" stroke-width="20" stroke-linecap="round"/>
<path d="M436.777 161.851C436.777 157.186 436.675 163.21 436.852 164.629C437.763 171.916 439.702 179.108 440.531 186.477C442.973 208.187 446.288 230.617 443.834 252.395C441.98 268.852 440.831 285.522 440.831 302.096C440.831 316.872 438.129 331.423 438.129 346.317C438.129 357.268 435.768 368.509 436.852 379.351C437.64 387.229 437.808 397.666 440.156 405.178C442.38 412.294 442.183 422.674 442.183 430.178C442.183 436.747 444.886 456.267 444.886 449.699" stroke="black" stroke-width="20" stroke-linecap="round"/>
<path d="M444.886 178.068C444.886 178.794 448.891 175.103 450.291 174.014C454.914 170.418 459.775 167.726 464.856 164.854C474.072 159.645 488.581 156.063 499.017 155.019C513.517 153.569 539.451 155.813 550.595 166.956C555.613 171.974 560.151 177.113 565.16 182.122C570.295 187.257 574.172 192.419 575.971 199.615C577.306 204.955 581.109 211.459 583.404 216.508C585.767 221.706 584.08 230.488 584.08 236.178C584.08 252.056 583.211 265.362 573.944 278.747C564.864 291.863 553.693 307.667 537.531 312.156C517.377 317.755 500.344 321.853 480.698 312.457C473.106 308.826 466.382 306.325 460.352 300.294C454.906 294.849 448.816 290.848 442.183 287.531" stroke="black" stroke-width="20" stroke-linecap="round"/>
<path d="M738.139 190.23C734.724 189.803 729.593 176.476 727.027 173.713C720.913 167.128 714.736 163.41 707.057 158.473C699.99 153.93 692.664 157 685.434 154.418C679.574 152.325 667.298 153.723 662.46 157.797C657.59 161.898 650.058 164.824 644.592 168.608C638.369 172.916 633.303 179.248 629.276 185.576C621.391 197.966 612.975 214.247 611.032 228.82C608.601 247.056 609.974 262.685 623.27 276.72C628.325 282.056 631.593 285.548 638.135 289.183C643.103 291.943 648.537 298.342 654.427 298.342C668.237 298.342 682.507 300.508 695.945 295.339C703.056 292.604 708.694 285.676 715.841 283.477C720.989 281.893 727.14 277.001 730.03 272.666" stroke="black" stroke-width="20" stroke-linecap="round"/>
<path d="M739.49 172.662C731.527 180.625 735.436 203.069 735.436 213.504C735.436 227.018 735.436 240.532 735.436 254.046C735.436 269.017 740.841 283.123 740.841 298.342" stroke="black" stroke-width="20" stroke-linecap="round"/>
<path d="M788.14 10.4945C791.214 10.8788 789.492 31.3799 789.492 33.7686C789.492 56.4051 793.482 79.9219 790.167 102.465C788.816 111.653 789.492 121.198 789.492 130.469C789.492 138.643 787.462 146.34 786.864 154.418C785.769 169.197 785.438 183.754 785.438 198.639C785.438 211.953 785.438 225.267 785.438 238.58C785.438 244.222 786.359 250.318 787.465 255.848C788.711 262.08 786.592 269.456 788.891 275.368C795.128 291.406 794.897 312.158 794.897 329.424" stroke="black" stroke-width="20" stroke-linecap="round"/>
<path d="M765.167 165.905C761.58 169.093 767.908 167.257 771.323 167.257C779.281 167.257 787.24 167.257 795.198 167.257C800.053 167.257 804.908 167.257 809.763 167.257C811.231 167.257 820.395 167.257 815.168 167.257" stroke="black" stroke-width="20" stroke-linecap="round"/>
<path d="M809.763 167.257H811.114" stroke="black" stroke-width="20" stroke-linecap="round"/>
</svg>
