<svg width="572" height="325" viewBox="0 0 572 325" fill="none" xmlns="http://www.w3.org/2000/svg">
<path d="M10.6724 161.583C18.0409 162.402 20.3803 185.63 22.655 191.054C29.0643 206.338 32.6843 222.101 38.9287 237.365C41.2983 243.157 58.1061 294.531 55.8501 295.659" stroke="black" stroke-width="20" stroke-linecap="round"/>
<path d="M87.9115 163.04C87.9115 161.606 87.3916 168.646 87.0209 169.922C84.8731 177.32 81.5118 184.073 80.3009 191.701C77.9841 206.298 75.8308 221.765 70.4234 235.584C66.4154 245.826 65.33 256.568 61.6793 266.836C58.0545 277.031 54.3926 290.591 54.3926 301.488" stroke="black" stroke-width="20" stroke-linecap="round"/>
<path d="M84.9971 161.583C85.4083 165.284 89.7867 168.145 90.8265 171.784C92.7764 178.609 97.5093 183.394 99.2467 190.73C103.035 206.724 110.571 221.286 114.144 237.365C116.36 247.339 119.899 257.525 122.888 267.241C124.54 272.61 126.418 291.006 131.632 292.744" stroke="black" stroke-width="20" stroke-linecap="round"/>
<path d="M169.523 157.211C172.745 157.614 161.773 180.463 160.779 183.443C155.606 198.963 150.534 214.616 146.206 230.402C142.845 242.66 141.139 255.209 138.595 267.645C137.39 273.535 134.547 281.027 134.547 286.915" stroke="black" stroke-width="20" stroke-linecap="round"/>
<path d="M321.087 177.614C321.087 178.668 319.089 173.649 318.496 172.108C317.088 168.446 314.533 165.88 312.343 162.716C308.029 156.485 302.53 153.243 294.855 152.839C288.232 152.49 281.602 149.924 274.776 149.924C268.838 149.924 262.901 149.924 256.964 149.924C242.508 149.924 228.878 160.522 219.073 170.327C205.432 183.968 195.755 204.934 195.755 224.249C195.755 242.058 193.991 261.69 209.681 274.527C220.076 283.033 234.756 290.532 246.762 295.335C255.675 298.9 274.724 299.576 282.467 293.554C291.796 286.298 300.089 277.11 309.428 270.884" stroke="black" stroke-width="20" stroke-linecap="round"/>
<path d="M319.63 160.126C319.63 188.94 316.715 217.316 316.715 246.109C316.715 255.179 319.63 263.709 319.63 272.341C319.63 279.628 320.269 291.927 325.459 297.116" stroke="black" stroke-width="20" stroke-linecap="round"/>
<path d="M389.582 10.019C393.453 14.3737 392.497 29.2852 392.497 34.7939C392.497 51.0114 394.66 66.5645 392.821 82.8863C388.916 117.542 385.21 152.93 385.21 187.815C385.21 212.534 389.582 236.955 389.582 261.816C389.582 279.412 389.582 297.008 389.582 314.604" stroke="black" stroke-width="20" stroke-linecap="round"/>
<path d="M498.883 158.668C461.655 158.668 440.292 204.109 445.042 237.365C447.724 256.136 456.46 275.096 469.736 288.372C482.051 300.687 492.051 301.488 509.085 301.488C527.095 301.488 540.038 289.294 547.785 273.799C552.182 265.005 561.549 261.752 561.549 250.481C561.549 242.466 561.549 234.45 561.549 226.435C561.549 217.734 559.232 203.464 554.991 195.831C550.198 187.203 543.859 181.046 538.232 172.918C528.256 158.508 508.996 157.211 493.054 157.211" stroke="black" stroke-width="20" stroke-linecap="round"/>
</svg>
